<?xml version="1.0" encoding="utf-8"?>
<!-- Generator: Adobe Illustrator 16.0.3, SVG Export Plug-In . SVG Version: 6.00 Build 0)  -->
<!DOCTYPE svg PUBLIC "-//W3C//DTD SVG 1.1//EN" "http://www.w3.org/Graphics/SVG/1.1/DTD/svg11.dtd">
<svg version="1.1" id="Capa_1" xmlns="http://www.w3.org/2000/svg" xmlns:xlink="http://www.w3.org/1999/xlink" x="0px" y="0px"
	 width="185.324px" height="46.059px" viewBox="0 0 185.324 46.059" enable-background="new 0 0 185.324 46.059"
	 xml:space="preserve">
<g>
	<path fill="#FFFFFF" d="M24.081,12.244v4.001h-9.625v4.41h9.149v4.001h-9.149v8.003H9.822V12.244H24.081z"/>
	<path fill="#FFFFFF" d="M45.291,29.842c-2.1,2.015-4.684,3.023-7.753,3.023c-3.07,0-5.654-1.008-7.753-3.023
		c-2.099-2.016-3.148-4.522-3.148-7.521s1.049-5.505,3.148-7.521c2.099-2.015,4.684-3.023,7.753-3.023
		c3.069,0,5.654,1.008,7.753,3.023c2.099,2.016,3.149,4.522,3.149,7.521S47.39,27.826,45.291,29.842z M43.716,22.335
		c0-1.82-0.594-3.374-1.782-4.659c-1.188-1.285-2.649-1.928-4.382-1.928s-3.193,0.643-4.381,1.928
		c-1.188,1.285-1.782,2.838-1.782,4.659c0,1.821,0.594,3.369,1.782,4.644c1.188,1.275,2.648,1.913,4.381,1.913
		s3.194-0.638,4.382-1.913C43.123,25.704,43.716,24.156,43.716,22.335z"/>
	<path fill="#FFFFFF" d="M61.896,28.629c2.277,0,4.139-0.886,5.585-2.658l2.97,3.008c-2.357,2.609-5.134,3.914-8.333,3.914
		s-5.833-0.993-7.902-2.979c-2.069-1.986-3.104-4.493-3.104-7.521c0-3.027,1.055-5.554,3.164-7.579
		c2.109-2.025,4.688-3.038,7.738-3.038c3.406,0,6.258,1.275,8.556,3.826l-2.882,3.213c-1.466-1.791-3.288-2.687-5.466-2.687
		c-1.743,0-3.233,0.56-4.471,1.679c-1.238,1.12-1.856,2.629-1.856,4.527s0.584,3.422,1.752,4.571
		C58.816,28.056,60.232,28.629,61.896,28.629z"/>
	<path fill="#FFFFFF" d="M79.452,27.388c0.772,0.945,1.812,1.417,3.119,1.417s2.342-0.472,3.104-1.417
		c0.762-0.944,1.144-2.234,1.144-3.87V12.244h4.634v11.42c0,2.96-0.832,5.233-2.496,6.82s-3.792,2.38-6.387,2.38
		c-2.595,0-4.729-0.798-6.402-2.395s-2.51-3.865-2.51-6.805v-11.42h4.634v11.274C78.293,25.154,78.68,26.444,79.452,27.388z"/>
	<path fill="#FFFFFF" d="M101.123,16.319c-0.446,0.36-0.668,0.837-0.668,1.431c0,0.594,0.272,1.066,0.817,1.417
		c0.544,0.351,1.802,0.764,3.773,1.241c1.97,0.478,3.5,1.193,4.589,2.146c1.089,0.955,1.634,2.347,1.634,4.177
		c0,1.831-0.698,3.315-2.094,4.454s-3.233,1.709-5.51,1.709c-3.288,0-6.249-1.198-8.882-3.593l2.763-3.33
		c2.238,1.928,4.308,2.892,6.208,2.892c0.852,0,1.52-0.18,2.005-0.541c0.485-0.36,0.728-0.847,0.728-1.46
		c0-0.613-0.257-1.1-0.772-1.46s-1.535-0.726-3.06-1.096c-2.417-0.564-4.184-1.299-5.302-2.205
		c-1.119-0.905-1.679-2.326-1.679-4.264c0-1.937,0.708-3.432,2.124-4.483c1.416-1.051,3.183-1.577,5.303-1.577
		c1.386,0,2.772,0.234,4.159,0.701s2.594,1.129,3.624,1.986l-2.347,3.33c-1.802-1.343-3.664-2.015-5.584-2.015
		C102.177,15.778,101.568,15.958,101.123,16.319z"/>
</g>
<path fill="#FFFFFF" d="M152.754,39.523c-5.297-2.473-8.953-7.611-9.183-13.51c-0.212-5.455,2.505-10.737,7.116-13.682
	c4.58-2.924,10.545-3.248,15.389-0.753c4.73,2.439,8.006,7.258,8.394,12.587c0.485,6.661-3.337,12.754-9.386,15.461
	c-1.031,0.461-0.139,1.979,0.888,1.518c5.854-2.621,9.853-8.296,10.265-14.712c0.393-6.094-2.595-12.019-7.65-15.413
	c-5.047-3.39-11.688-3.779-17.139-1.129c-5.361,2.608-8.998,7.968-9.57,13.879c-0.705,7.252,3.429,14.211,9.988,17.271
	C152.886,41.518,153.78,40.002,152.754,39.523"/>
<path fill="#FFFFFF" d="M154.327,35.155c-3.619-1.84-6.053-5.41-6.128-9.519c-0.067-3.74,1.845-7.332,5.017-9.33
	c6.744-4.247,15.953,0.326,16.516,8.317c0.322,4.577-2.271,8.7-6.363,10.653c-1.021,0.486-0.13,2.003,0.887,1.519
	c8.609-4.109,9.69-16.215,1.84-21.696c-7.578-5.289-18.404-0.376-19.551,8.739c-0.668,5.309,2.154,10.426,6.896,12.834
	C154.446,37.184,155.336,35.667,154.327,35.155"/>
<path fill="#FFFFFF" d="M156.415,30.39c-4.854-2.788-3.293-10.498,2.512-10.612c5.839-0.114,7.685,7.64,2.846,10.552
	c-1.034,0.623-0.092,2.246,0.947,1.621c2.959-1.781,4.519-5.274,3.524-8.652c-0.938-3.194-3.983-5.453-7.317-5.397
	c-3.273,0.056-6.201,2.288-7.107,5.439c-0.98,3.408,0.625,6.935,3.648,8.671C156.516,32.614,157.461,30.993,156.415,30.39"/>
<polyline fill="#FFFFFF" points="159.036,26.16 159.036,39.525 156.749,41.814 156.749,46.059 159.293,43.74 161.788,45.777 
	161.788,41.725 159.036,39.525 "/>
<path fill="#FFFFFF" d="M161.499,25.017c0,1.36-1.102,2.462-2.462,2.462s-2.464-1.102-2.464-2.462c0-1.36,1.104-2.463,2.464-2.463
	S161.499,23.657,161.499,25.017"/>
<path fill="#FFFFFF" d="M161.499,25.017c0,1.36-1.102,2.462-2.462,2.462s-2.464-1.102-2.464-2.462c0-1.36,1.104-2.463,2.464-2.463
	S161.499,23.657,161.499,25.017"/>
</svg>
